# xmcd CD database file
#
# Track frame offsets:
#	150
#	24287
#	58031
#	77923
#	105412
#	125738
#	153344
#	176322
#	199616
#
# Disc length: 2690 seconds
#
# Revision: 0
# Processed by: cddbd v1.5.1PL0 Copyright (c) Steve Scherf et al.
# Submitted via: CDex 1.51
#
DISCID=680a8009
DTITLE=Whispering Johnson - Birthday Numbers
DYEAR=2004
DGENRE=Jazz
TTITLE0=Forty-Eight
TTITLE1=Forty-Five
TTITLE2=Forty-Six
TTITLE3=Forty-Four
TTITLE4=Forty-Three
TTITLE5=Forty-Seven
TTITLE6=Forty-Two
TTITLE7=Four-Fifty
TTITLE8=Untitled
EXTD=YEAR: 2004
EXTT0=
EXTT1=
EXTT2=
EXTT3=
EXTT4=
EXTT5=
EXTT6=
EXTT7=
EXTT8=
PLAYORDER=
